<svg width="30" height="25" viewBox="0 0 30 25" fill="none" xmlns="http://www.w3.org/2000/svg">
<path d="M29.8235 1.69341C29.7755 2.25798 29.5893 2.91865 29.4511 3.58532C28.0637 10.15 26.6703 16.7146 25.2709 23.2792C25.1928 23.6396 25.1148 23.9939 24.9286 24.3123C24.6043 24.8888 24.0697 25.1171 23.4331 24.9429C23.1147 24.8528 22.8204 24.7147 22.5502 24.5165C20.442 22.9549 18.3219 21.3993 16.2198 19.8257C15.9675 19.6395 15.8234 19.6516 15.6012 19.8678C14.5801 20.8828 13.5471 21.8738 12.514 22.8768C12.2498 23.1351 11.9735 23.3633 11.5951 23.4414C11.3368 23.5014 11.2167 23.4414 11.2408 23.1531C11.3429 21.7116 11.439 20.2642 11.535 18.8167C11.5771 18.1681 11.6251 17.5254 11.6492 16.8767C11.6612 16.6125 11.7513 16.4143 11.9495 16.2341C14.418 14.0179 16.8865 11.7956 19.3549 9.57337C21.0186 8.07786 22.6823 6.58235 24.34 5.08083C24.4661 4.96672 24.6403 4.82858 24.5442 4.63638C24.4421 4.42617 24.2199 4.48623 24.0397 4.51626C23.8054 4.5583 23.6012 4.67843 23.397 4.80455C18.3279 8.00579 13.2648 11.207 8.20168 14.4143C7.94342 14.5764 7.7272 14.6004 7.44492 14.5104C5.39685 13.8497 3.33677 13.201 1.2887 12.5464C0.988393 12.4503 0.676078 12.3662 0.411811 12.186C-0.0926986 11.8437 -0.134741 11.4593 0.29169 11.0148C0.664066 10.6304 1.14455 10.4322 1.62504 10.2461C8.14162 7.73552 14.6522 5.21897 21.1688 2.70844C23.379 1.85557 25.5832 1.00271 27.7935 0.149851C28.9767 -0.30661 29.8475 0.300003 29.8235 1.69341Z" fill="#7E7E7E"/>
</svg>
