<svg width="31" height="25" viewBox="0 0 31 25" fill="none" xmlns="http://www.w3.org/2000/svg">
<path d="M0.000610007 22.1915C3.4191 22.4879 6.48499 21.6624 9.21417 19.6511C9.15988 19.5207 9.06655 19.5513 8.99335 19.5441C6.38129 19.2801 4.57079 17.9369 3.50938 15.5872C3.4618 15.4813 3.35992 15.3515 3.43801 15.2517C3.5167 15.1506 3.66615 15.2252 3.78449 15.2372C4.51711 15.3094 5.24546 15.2853 5.96588 15.1266C6.00248 15.1188 6.03481 15.0929 6.1135 15.0526C5.47177 14.8819 4.88738 14.6841 4.35485 14.3654C2.35829 13.1725 1.26089 11.4402 1.13156 9.13076C1.11387 8.8139 1.1218 8.81029 1.41522 8.94918C2.18322 9.31295 2.98782 9.53301 3.84427 9.56428C3.87355 9.43801 3.77412 9.41516 3.71861 9.37367C2.31681 8.31905 1.48476 6.92291 1.23039 5.21351C1.0303 3.86968 1.27736 2.58417 1.91909 1.37442C2.05024 1.1273 2.13259 1.25838 2.2369 1.38103C3.32759 2.66354 4.5775 3.77227 5.98479 4.70784C8.38639 6.30421 11.0241 7.28247 13.8996 7.6312C14.2522 7.67389 14.6079 7.69434 14.9604 7.73703C15.1727 7.76288 15.2215 7.69734 15.188 7.4887C14.9946 6.3 15.0892 5.13955 15.5259 4.00436C16.5654 1.30287 19.5556 -0.395108 22.4489 0.0792917C23.7921 0.299957 24.9615 0.855527 25.9327 1.79831C26.0907 1.95164 26.2334 1.9805 26.4457 1.93179C27.6309 1.66122 28.7619 1.25537 29.8288 0.67635C29.9233 0.625242 30.01 0.546476 30.1716 0.551888C29.705 1.96005 28.8113 3.01889 27.5272 3.88711C27.9914 3.90335 28.3544 3.80294 28.7161 3.71816C29.101 3.62797 29.4835 3.52455 29.8611 3.4073C30.2271 3.29366 30.5846 3.15537 31 3.0748C30.7676 3.37904 30.5462 3.6923 30.3003 3.98632C29.6446 4.76917 28.9107 5.47386 28.0799 6.07693C27.95 6.17133 27.8725 6.27114 27.8792 6.44911C27.9823 9.13678 27.4491 11.7102 26.3774 14.173C24.9908 17.3579 22.8936 19.9896 19.9869 21.9654C17.6774 23.5353 15.1154 24.4613 12.338 24.8268C10.0377 25.1293 7.75625 25.0403 5.49617 24.5226C3.63077 24.0951 1.88065 23.3856 0.246443 22.3995C0.176902 22.358 0.107971 22.3153 0.0408705 22.2702C0.0268404 22.2612 0.0231803 22.2372 0 22.1903V22.1915H0.000610007Z" fill="#7E7E7E"/>
</svg>
